<svg width="50" height="50" viewBox="0 0 50 50" fill="none" xmlns="http://www.w3.org/2000/svg">
<rect width="50" height="50" rx="25" fill="url(#paint0_linear)"/>
<path d="M23.7683 37.576C21.8269 37.576 20.3549 37.0427 19.3523 35.976C18.3709 34.9093 17.8803 33.5653 17.8803 31.944C17.8803 30.792 18.1149 29.64 18.5843 28.488C19.0749 27.3147 19.7683 26.2907 20.6643 25.416C21.5603 24.5413 22.6056 23.9547 23.8003 23.656C23.1389 23.1867 22.6483 22.6213 22.3283 21.96C22.0083 21.2773 21.8483 20.5627 21.8483 19.816C21.8483 18.7067 22.1469 17.6187 22.7443 16.552C23.3629 15.4853 24.2056 14.6213 25.2723 13.96C26.3603 13.2773 27.5549 12.936 28.8563 12.936C30.2003 12.936 31.2989 13.288 32.1523 13.992C33.0056 14.696 33.4323 15.6773 33.4323 16.936C33.4323 17.8747 33.1976 18.664 32.7283 19.304C32.2589 19.944 31.7043 20.264 31.0643 20.264C30.4883 20.264 29.9869 19.976 29.5603 19.4C29.9443 19.272 30.2749 18.92 30.5523 18.344C30.8296 17.768 30.9683 17.192 30.9683 16.616C30.9683 15.9973 30.7976 15.5493 30.4563 15.272C30.1149 14.9733 29.6989 14.824 29.2083 14.824C28.5896 14.824 28.0243 15.048 27.5123 15.496C27.0216 15.9227 26.6376 16.488 26.3603 17.192C26.0829 17.8747 25.9443 18.5893 25.9443 19.336C25.9443 20.36 26.2109 21.2667 26.7443 22.056C27.2776 22.824 28.0883 23.3467 29.1763 23.624C28.0883 23.8587 27.1069 24.392 26.2323 25.224C25.3576 26.056 24.6749 27.0267 24.1843 28.136C23.6936 29.224 23.4483 30.2693 23.4483 31.272C23.4483 32.232 23.6936 33.0107 24.1843 33.608C24.6963 34.2053 25.4643 34.504 26.4883 34.504C27.5549 34.504 28.6643 34.216 29.8163 33.64C30.9896 33.0427 31.8536 32.2427 32.4083 31.24L33.1443 31.56C32.3123 33.3947 31.0323 34.856 29.3043 35.944C27.5763 37.032 25.7309 37.576 23.7683 37.576Z" fill="#052033"/>
<defs>
<linearGradient id="paint0_linear" x1="50" y1="-6.18386e-06" x2="-8.64326" y2="14.1312" gradientUnits="userSpaceOnUse">
<stop stop-color="#A8FF35"/>
<stop offset="1" stop-color="#54E346"/>
</linearGradient>
</defs>
</svg>
