<svg width="45" height="45" viewBox="0 0 45 45" fill="none" xmlns="http://www.w3.org/2000/svg">
<g clip-path="url(#clip0)">
<path d="M9.88875 19.6875C11.8357 19.6875 13.7388 20.2648 15.3576 21.3465C16.9764 22.4281 18.2381 23.9655 18.9832 25.7642C19.7282 27.5629 19.9232 29.5422 19.5434 31.4517C19.1635 33.3612 18.226 35.1152 16.8493 36.4918C15.4727 37.8685 13.7187 38.806 11.8092 39.1859C9.89967 39.5657 7.92042 39.3707 6.12171 38.6257C4.323 37.8806 2.78562 36.6189 1.70397 35.0001C0.622326 33.3813 0.045 31.4782 0.045 29.5312L0 28.125C0 22.9035 2.07421 17.896 5.76634 14.2038C9.45846 10.5117 14.4661 8.4375 19.6875 8.4375V14.0625C17.84 14.0575 16.0098 14.4189 14.3028 15.1256C12.5958 15.8324 11.0458 16.8705 9.7425 18.18C9.23595 18.6856 8.76866 19.229 8.34469 19.8056C8.84813 19.7269 9.36281 19.6847 9.88594 19.6847L9.88875 19.6875ZM35.2012 19.6875C37.1482 19.6875 39.0513 20.2648 40.6701 21.3465C42.2889 22.4281 43.5506 23.9655 44.2957 25.7642C45.0407 27.5629 45.2357 29.5422 44.8559 31.4517C44.476 33.3612 43.5385 35.1152 42.1618 36.4918C40.7852 37.8685 39.0312 38.806 37.1217 39.1859C35.2122 39.5657 33.2329 39.3707 31.4342 38.6257C29.6355 37.8806 28.0981 36.6189 27.0165 35.0001C25.9348 33.3813 25.3575 31.4782 25.3575 29.5312L25.3125 28.125C25.3125 22.9035 27.3867 17.896 31.0788 14.2038C34.771 10.5117 39.7785 8.4375 45 8.4375V14.0625C43.1525 14.0575 41.3223 14.4189 39.6153 15.1256C37.9083 15.8324 36.3583 16.8705 35.055 18.18C34.5485 18.6856 34.0812 19.229 33.6572 19.8056C34.1606 19.7269 34.6753 19.6847 35.2012 19.6847V19.6875Z" fill="url(#paint0_linear)"/>
</g>
<defs>
<linearGradient id="paint0_linear" x1="0" y1="8.4375" x2="46.2322" y2="10.327" gradientUnits="userSpaceOnUse">
<stop stop-color="#F37121"/>
<stop offset="1" stop-color="#7E20F7"/>
</linearGradient>
<clipPath id="clip0">
<rect width="45" height="45" fill="white"/>
</clipPath>
</defs>
</svg>
