<svg width="95" height="25" viewBox="0 0 95 25" fill="none" xmlns="http://www.w3.org/2000/svg">
<path d="M19.06 2.85C19.98 2.85 20.74 2.82 21.34 2.76V3.36C20.84 3.54 20.35 3.92 19.87 4.5C19.39 5.08 18.96 5.89 18.58 6.93L12.25 24.06C12.03 24.04 11.68 24.03 11.2 24.03C10.74 24.03 10.4 24.04 10.18 24.06L2.53 5.28C2.27 4.62 1.97 4.14 1.63 3.84C1.29 3.54 0.96 3.38 0.64 3.36V2.76C1.84 2.82 3.36 2.85 5.2 2.85C7.26 2.85 8.78 2.82 9.76 2.76V3.36C9 3.4 8.46 3.49 8.14 3.63C7.82 3.77 7.66 4.05 7.66 4.47C7.66 4.81 7.78 5.28 8.02 5.88L13.3 19.32L16.99 9.36C17.55 7.82 17.83 6.6 17.83 5.7C17.83 4.9 17.61 4.32 17.17 3.96C16.75 3.6 16.13 3.4 15.31 3.36V2.76C16.67 2.82 17.92 2.85 19.06 2.85ZM27.5069 8.07C29.8069 8.07 31.6069 8.73 32.9069 10.05C34.2069 11.35 34.8569 13.42 34.8569 16.26C34.8569 19.1 34.2069 21.17 32.9069 22.47C31.6069 23.77 29.8069 24.42 27.5069 24.42C25.2269 24.42 23.4269 23.77 22.1069 22.47C20.8069 21.17 20.1569 19.1 20.1569 16.26C20.1569 13.42 20.8069 11.35 22.1069 10.05C23.4269 8.73 25.2269 8.07 27.5069 8.07ZM27.5069 8.67C26.6469 8.67 25.9569 9.3 25.4369 10.56C24.9369 11.8 24.6869 13.7 24.6869 16.26C24.6869 18.82 24.9369 20.72 25.4369 21.96C25.9569 23.2 26.6469 23.82 27.5069 23.82C28.3869 23.82 29.0769 23.21 29.5769 21.99C30.0769 20.75 30.3269 18.84 30.3269 16.26C30.3269 13.68 30.0669 11.77 29.5469 10.53C29.0469 9.29 28.3669 8.67 27.5069 8.67ZM47.0498 8.07C47.9498 8.07 48.6298 8.34 49.0898 8.88C49.5498 9.42 49.7798 10.07 49.7798 10.83C49.7798 11.57 49.5598 12.18 49.1198 12.66C48.6998 13.12 48.1398 13.35 47.4398 13.35C46.7598 13.35 46.2198 13.18 45.8198 12.84C45.4198 12.48 45.2198 12.01 45.2198 11.43C45.2198 10.47 45.6598 9.69 46.5398 9.09C46.4598 9.07 46.3398 9.06 46.1798 9.06C45.9798 9.06 45.8198 9.08 45.6998 9.12C44.9398 9.24 44.2898 9.7 43.7498 10.5C43.2298 11.3 42.9698 12.12 42.9698 12.96V20.91C42.9698 21.83 43.1898 22.47 43.6298 22.83C44.0898 23.19 44.8098 23.37 45.7898 23.37V24C45.5098 24 45.2798 23.99 45.0998 23.97C43.0598 23.91 41.6998 23.88 41.0198 23.88C40.4798 23.88 39.2498 23.91 37.3298 23.97C37.1698 23.99 36.9698 24 36.7298 24V23.37C37.4498 23.37 37.9498 23.22 38.2298 22.92C38.5098 22.6 38.6498 22.03 38.6498 21.21V11.76C38.6498 10.84 38.5098 10.17 38.2298 9.75C37.9498 9.33 37.4498 9.12 36.7298 9.12V8.49C37.3698 8.55 37.9898 8.58 38.5898 8.58C40.3698 8.58 41.8298 8.44 42.9698 8.16V10.95C43.3498 10.09 43.8998 9.4 44.6198 8.88C45.3398 8.34 46.1498 8.07 47.0498 8.07ZM60.4377 8.07C62.0577 8.07 63.3677 8.74 64.3677 10.08C65.3677 11.4 65.8677 13.32 65.8677 15.84C65.8677 18.78 65.2277 20.95 63.9477 22.35C62.6677 23.73 61.0177 24.42 58.9977 24.42C57.6177 24.42 56.4977 24.07 55.6377 23.37C54.9177 23.31 54.1977 23.39 53.4777 23.61C52.7577 23.83 52.1877 24.12 51.7677 24.48L51.3177 24.21C51.4577 23.71 51.5277 23.15 51.5277 22.53V4.14C51.5277 3.22 51.3777 2.55 51.0777 2.13C50.7977 1.71 50.3077 1.5 49.6077 1.5V0.869999C50.2277 0.93 50.8477 0.96 51.4677 0.96C53.2077 0.96 54.6677 0.819999 55.8477 0.539998V10.92C56.2677 10 56.8777 9.3 57.6777 8.82C58.4777 8.32 59.3977 8.07 60.4377 8.07ZM58.0677 23.79C59.1677 23.79 59.9877 23.17 60.5277 21.93C61.0677 20.69 61.3377 18.8 61.3377 16.26C61.3377 13.8 61.1077 12.04 60.6477 10.98C60.1877 9.9 59.5277 9.36 58.6677 9.36C58.0277 9.36 57.4377 9.6 56.8977 10.08C56.3777 10.54 56.0277 11.17 55.8477 11.97V22.98C56.5077 23.52 57.2477 23.79 58.0677 23.79ZM76.5459 21.96C78.1859 21.96 79.5059 21.16 80.5059 19.56L81.0459 19.74C80.6459 21.04 79.9259 22.15 78.8859 23.07C77.8659 23.97 76.5859 24.42 75.0459 24.42C72.9259 24.42 71.2359 23.75 69.9759 22.41C68.7359 21.05 68.1159 19.05 68.1159 16.41C68.1159 13.71 68.7859 11.65 70.1259 10.23C71.4659 8.79 73.2459 8.07 75.4659 8.07C79.2259 8.07 81.1059 10.29 81.1059 14.73H72.6759C72.6559 15.03 72.6459 15.5 72.6459 16.14C72.6459 17.46 72.8259 18.56 73.1859 19.44C73.5659 20.32 74.0459 20.96 74.6259 21.36C75.2259 21.76 75.8659 21.96 76.5459 21.96ZM75.2859 8.7C74.5659 8.7 73.9659 9.15 73.4859 10.05C73.0259 10.93 72.7359 12.3 72.6159 14.16H77.3259C77.3659 12.58 77.2059 11.28 76.8459 10.26C76.5059 9.22 75.9859 8.7 75.2859 8.7ZM88.783 8.07C89.543 8.07 90.243 8.17 90.883 8.37C91.523 8.55 92.013 8.76 92.353 9C92.553 9.14 92.733 9.21 92.893 9.21C93.073 9.21 93.223 9.12 93.343 8.94C93.483 8.74 93.573 8.46 93.613 8.1H94.243C94.163 9.12 94.123 10.88 94.123 13.38H93.493C93.313 12.06 92.913 10.96 92.293 10.08C91.693 9.18 90.813 8.73 89.653 8.73C89.053 8.73 88.553 8.9 88.153 9.24C87.773 9.58 87.583 10.05 87.583 10.65C87.583 11.33 87.813 11.92 88.273 12.42C88.733 12.9 89.453 13.49 90.433 14.19L91.303 14.82C92.523 15.74 93.423 16.56 94.003 17.28C94.583 18 94.873 18.9 94.873 19.98C94.873 20.86 94.613 21.64 94.093 22.32C93.593 23 92.913 23.52 92.053 23.88C91.193 24.24 90.243 24.42 89.203 24.42C88.103 24.42 87.163 24.21 86.383 23.79C85.743 23.47 85.283 23.26 85.003 23.16C84.803 23.1 84.623 23.17 84.463 23.37C84.323 23.55 84.213 23.83 84.133 24.21H83.503C83.583 23.07 83.623 21.07 83.623 18.21H84.253C84.653 21.89 86.003 23.73 88.303 23.73C88.883 23.73 89.373 23.56 89.773 23.22C90.193 22.86 90.403 22.32 90.403 21.6C90.403 21.04 90.273 20.54 90.013 20.1C89.773 19.66 89.463 19.27 89.083 18.93C88.703 18.59 88.133 18.12 87.373 17.52C86.473 16.8 85.783 16.22 85.303 15.78C84.843 15.34 84.443 14.82 84.103 14.22C83.783 13.62 83.623 12.95 83.623 12.21C83.623 10.93 84.123 9.92 85.123 9.18C86.123 8.44 87.343 8.07 88.783 8.07Z" fill="#EEEEEE" fill-opacity="0.5"/>
</svg>
