<svg width="128" height="24" viewBox="0 0 128 24" fill="none" xmlns="http://www.w3.org/2000/svg">
<path d="M0.820312 23V20.4365L3.09082 19.9971V4.68945L0.820312 4.25V1.67188H17.7979V7.5166H14.5166L14.3262 4.96777H7.36816V10.8418H14.8389V14.1377H7.36816V19.9971L9.65332 20.4365V23H0.820312ZM19.4092 23V20.4365L21.46 19.9971V10.168L19.1895 9.72852V7.15039H25.4443L25.6055 9.11328L25.6348 9.46484C26.416 7.72656 27.5879 6.85742 29.1504 6.85742C29.4043 6.85742 29.6777 6.87695 29.9707 6.91602C30.2734 6.95508 30.5469 7.01367 30.791 7.0918L30.3369 11.0322L28.2129 10.915C27.6074 10.8857 27.1143 10.9883 26.7334 11.2227C26.3623 11.457 26.0303 11.7939 25.7373 12.2334V19.9971L27.7881 20.4365V23H19.4092ZM39.3311 23.3076C37.7588 23.3076 36.4111 22.9658 35.2881 22.2822C34.1748 21.5986 33.3203 20.6514 32.7246 19.4404C32.1289 18.2197 31.8311 16.8184 31.8311 15.2363V14.9287C31.8311 13.3564 32.1289 11.9648 32.7246 10.7539C33.3203 9.5332 34.1748 8.58105 35.2881 7.89746C36.4111 7.2041 37.749 6.85742 39.3018 6.85742C40.8643 6.85742 42.2021 7.19922 43.3154 7.88281C44.4385 8.56641 45.2979 9.51855 45.8936 10.7393C46.4893 11.9502 46.7871 13.3467 46.7871 14.9287V15.2363C46.7871 16.8184 46.4893 18.2197 45.8936 19.4404C45.2979 20.6514 44.4434 21.5986 43.3301 22.2822C42.2168 22.9658 40.8838 23.3076 39.3311 23.3076ZM39.3311 20.0264C40.4346 20.0264 41.2402 19.5869 41.748 18.708C42.2656 17.8291 42.5244 16.6719 42.5244 15.2363V14.9287C42.5244 13.5225 42.2656 12.375 41.748 11.4863C41.2305 10.5977 40.415 10.1533 39.3018 10.1533C38.1885 10.1533 37.3779 10.5977 36.8701 11.4863C36.3623 12.375 36.1084 13.5225 36.1084 14.9287V15.2363C36.1084 16.6816 36.3623 17.8438 36.8701 18.7227C37.3779 19.5918 38.1982 20.0264 39.3311 20.0264ZM48.5449 23V20.4365L50.5957 19.9971V10.168L48.3252 9.72852V7.15039H54.5801L54.7705 9.4209C55.2979 8.61035 55.9473 7.98047 56.7188 7.53125C57.5 7.08203 58.3887 6.85742 59.3848 6.85742C60.9473 6.85742 62.1729 7.36035 63.0615 8.36621C63.96 9.37207 64.4092 10.9492 64.4092 13.0977V19.9971L66.46 20.4365V23H58.2861V20.4365L60.1172 19.9971V13.1123C60.1172 12.0479 59.9023 11.2959 59.4727 10.8564C59.0527 10.4072 58.4326 10.1826 57.6123 10.1826C56.4209 10.1826 55.5078 10.6807 54.873 11.6768V19.9971L56.6016 20.4365V23H48.5449ZM73.5645 23.3076C72.0898 23.3076 70.9521 22.9023 70.1514 22.0918C69.3604 21.2812 68.9648 19.9971 68.9648 18.2393V10.1533H66.7822V7.15039H68.9648V3.26855H73.2275V7.15039H76.1426V10.1533H73.2275V18.2246C73.2275 18.8398 73.3545 19.2793 73.6084 19.543C73.8721 19.8066 74.2285 19.9385 74.6777 19.9385C74.9121 19.9385 75.166 19.9238 75.4395 19.8945C75.7129 19.8555 75.9473 19.8164 76.1426 19.7773L76.5088 22.8682C76.0791 22.9951 75.6055 23.0977 75.0879 23.1758C74.5703 23.2637 74.0625 23.3076 73.5645 23.3076ZM85.3271 23.3076C83.8037 23.3076 82.4756 22.9756 81.3428 22.3115C80.2197 21.6377 79.3457 20.7148 78.7207 19.543C78.1055 18.3711 77.7979 17.0332 77.7979 15.5293V14.9434C77.7979 13.3711 78.0908 11.9795 78.6768 10.7686C79.2627 9.54785 80.0879 8.59082 81.1523 7.89746C82.2266 7.19434 83.4912 6.84766 84.9463 6.85742C87.085 6.85742 88.7207 7.4873 89.8535 8.74707C90.9863 9.99707 91.5527 11.7549 91.5527 14.0205V16.3496H82.2363L82.207 16.4375C82.2852 17.4824 82.6318 18.3418 83.2471 19.0156C83.8623 19.6895 84.7363 20.0264 85.8691 20.0264C86.6504 20.0264 87.3779 19.9287 88.0518 19.7334C88.7354 19.5283 89.3994 19.2305 90.0439 18.8398L91.2012 21.4766C90.5469 22.0039 89.7217 22.4434 88.7256 22.7949C87.7393 23.1367 86.6064 23.3076 85.3271 23.3076ZM82.2656 13.5225H87.5537V13.1416C87.5537 12.1846 87.3535 11.4277 86.9531 10.8711C86.5625 10.3047 85.918 10.0215 85.0195 10.0215C84.1602 10.0215 83.5059 10.3486 83.0566 11.0029C82.6074 11.6475 82.3291 12.4629 82.2217 13.4492L82.2656 13.5225ZM100.986 23.3076C99.4629 23.3076 98.1445 22.9658 97.0312 22.2822C95.9277 21.5986 95.0781 20.6562 94.4824 19.4551C93.8867 18.2539 93.5889 16.8721 93.5889 15.3096V14.8701C93.5889 13.3174 93.8916 11.9404 94.4971 10.7393C95.1025 9.52832 95.957 8.58105 97.0605 7.89746C98.1641 7.2041 99.4629 6.85742 100.957 6.85742C102.373 6.85742 103.599 7.08203 104.634 7.53125C105.669 7.9707 106.509 8.4834 107.153 9.06934L107.124 13.6104H103.901L103.33 10.7832C103.096 10.5488 102.798 10.3584 102.437 10.2119C102.075 10.0654 101.709 9.99219 101.338 9.99219C100.166 9.99219 99.292 10.4268 98.7158 11.2959C98.1494 12.1553 97.8662 13.3467 97.8662 14.8701V15.3096C97.8662 16.9404 98.1738 18.1367 98.7891 18.8984C99.4043 19.6504 100.146 20.0264 101.016 20.0264C101.768 20.0264 102.368 19.8311 102.817 19.4404C103.276 19.04 103.594 18.4785 103.77 17.7559H107.417L107.461 17.8438C107.207 19.5332 106.582 20.8662 105.586 21.8428C104.59 22.8193 103.057 23.3076 100.986 23.3076ZM109.146 23V20.4365L111.211 19.9971V3.16602L108.926 2.72656V0.148438H115.474V9.17188C115.972 8.43945 116.587 7.87305 117.319 7.47266C118.062 7.0625 118.901 6.85742 119.839 6.85742C121.431 6.85742 122.69 7.38965 123.618 8.4541C124.556 9.50879 125.024 11.1445 125.024 13.3613V19.9971L127.075 20.4365V23H118.901V20.4365L120.747 19.9971V13.332C120.747 12.1895 120.532 11.3789 120.103 10.9004C119.673 10.4219 119.043 10.1826 118.213 10.1826C117.012 10.1826 116.099 10.6514 115.474 11.5889V19.9971L117.319 20.4365V23H109.146Z" fill="#EEEEEE" fill-opacity="0.5"/>
</svg>
