<svg width="55" height="23" viewBox="0 0 55 23" fill="none" xmlns="http://www.w3.org/2000/svg">
<path d="M0.964844 22V18.37H3.66484V4.69H0.964844V1.06H10.9248V4.69H8.22484V18.37H10.9248V22H0.964844ZM23.1841 22.36C21.7641 22.36 20.4841 22.14 19.3441 21.7C18.2041 21.24 17.2341 20.57 16.4341 19.69C15.6341 18.79 15.0141 17.68 14.5741 16.36C14.1341 15.02 13.9141 13.46 13.9141 11.68C13.9141 9.92 14.1341 8.36 14.5741 7C15.0141 5.62 15.6341 4.47 16.4341 3.55C17.2341 2.61 18.2041 1.9 19.3441 1.42C20.4841 0.939999 21.7641 0.699999 23.1841 0.699999C25.1241 0.699999 26.7241 1.1 27.9841 1.9C29.2441 2.68 30.2541 3.92 31.0141 5.62L27.0841 7.66C26.8041 6.78 26.3641 6.08 25.7641 5.56C25.1841 5.02 24.3241 4.75 23.1841 4.75C21.8441 4.75 20.7641 5.19 19.9441 6.07C19.1441 6.93 18.7441 8.19 18.7441 9.85V13.21C18.7441 14.87 19.1441 16.14 19.9441 17.02C20.7641 17.88 21.8441 18.31 23.1841 18.31C24.3041 18.31 25.1941 18.01 25.8541 17.41C26.5341 16.79 27.0341 16.05 27.3541 15.19L31.0741 17.35C30.2941 18.95 29.2641 20.19 27.9841 21.07C26.7241 21.93 25.1241 22.36 23.1841 22.36ZM49.9251 8.26H49.8351L48.3051 11.32L44.2251 18.73L40.2351 11.35L38.6451 8.05H38.5551V22H34.2651V1.06H39.0951L44.2251 10.87H44.2851L49.3551 1.06H54.2151V22H49.9251V8.26Z" fill="#EEEEEE" fill-opacity="0.5"/>
</svg>
