<svg width="111" height="23" viewBox="0 0 111 23" fill="none" xmlns="http://www.w3.org/2000/svg">
<path d="M2.58941 22.18C1.86941 22.18 1.29941 21.97 0.879414 21.55C0.459414 21.13 0.249414 20.56 0.249414 19.84V3.04C0.249414 2.34 0.439414 1.8 0.819414 1.42C1.19941 1.04 1.73941 0.849999 2.43941 0.849999H9.96941C12.2694 0.849999 14.0594 1.43 15.3394 2.59C16.6194 3.75 17.2594 5.37 17.2594 7.45C17.2594 9.53 16.6194 11.15 15.3394 12.31C14.0594 13.47 12.2694 14.05 9.96941 14.05H4.92941V19.84C4.92941 20.56 4.71941 21.13 4.29941 21.55C3.87941 21.97 3.30941 22.18 2.58941 22.18ZM9.36941 10.51C11.7094 10.51 12.8794 9.5 12.8794 7.48C12.8794 5.44 11.7094 4.42 9.36941 4.42H4.92941V10.51H9.36941ZM22.2085 22.18C21.5485 22.18 20.9985 22 20.5585 21.64C20.1385 21.28 19.9285 20.75 19.9285 20.05V9.1C19.9285 8.4 20.1485 7.87 20.5885 7.51C21.0285 7.15 21.5685 6.97 22.2085 6.97C22.8485 6.97 23.3785 7.15 23.7985 7.51C24.2385 7.87 24.4585 8.4 24.4585 9.1V20.05C24.4585 20.75 24.2385 21.28 23.7985 21.64C23.3785 22 22.8485 22.18 22.2085 22.18ZM22.2085 4.57C21.4085 4.57 20.7785 4.37 20.3185 3.97C19.8585 3.55 19.6285 2.99 19.6285 2.29C19.6285 1.59 19.8585 1.04 20.3185 0.64C20.7785 0.239999 21.4085 0.0399984 22.2085 0.0399984C22.9885 0.0399984 23.6085 0.249999 24.0685 0.669999C24.5485 1.07 24.7885 1.61 24.7885 2.29C24.7885 2.99 24.5585 3.55 24.0985 3.97C23.6385 4.37 23.0085 4.57 22.2085 4.57ZM34.7365 22.24C33.2165 22.24 31.8865 21.93 30.7465 21.31C29.6065 20.69 28.7265 19.81 28.1065 18.67C27.5065 17.53 27.2065 16.19 27.2065 14.65C27.2065 13.11 27.5265 11.76 28.1665 10.6C28.8265 9.42 29.7465 8.51 30.9265 7.87C32.1065 7.23 33.4665 6.91 35.0065 6.91C35.8065 6.91 36.6065 7.02 37.4065 7.24C38.2265 7.46 38.9565 7.77 39.5965 8.17C40.2165 8.55 40.5265 9.11 40.5265 9.85C40.5265 10.37 40.4065 10.8 40.1665 11.14C39.9265 11.46 39.6065 11.62 39.2065 11.62C38.9465 11.62 38.6965 11.58 38.4565 11.5C38.2365 11.4 37.9365 11.26 37.5565 11.08C37.1365 10.86 36.7565 10.69 36.4165 10.57C36.0965 10.45 35.7265 10.39 35.3065 10.39C34.1865 10.39 33.3265 10.75 32.7265 11.47C32.1465 12.17 31.8565 13.2 31.8565 14.56C31.8565 15.92 32.1465 16.96 32.7265 17.68C33.3265 18.4 34.1865 18.76 35.3065 18.76C35.7265 18.76 36.0965 18.71 36.4165 18.61C36.7365 18.49 37.1265 18.31 37.5865 18.07C37.9665 17.89 38.2665 17.76 38.4865 17.68C38.7065 17.58 38.9465 17.53 39.2065 17.53C39.5865 17.53 39.8965 17.7 40.1365 18.04C40.3965 18.38 40.5265 18.81 40.5265 19.33C40.5265 20.07 40.2165 20.62 39.5965 20.98C38.9565 21.38 38.2165 21.69 37.3765 21.91C36.5365 22.13 35.6565 22.24 34.7365 22.24ZM56.6407 18.49C57.1007 18.93 57.3307 19.43 57.3307 19.99C57.3307 20.55 57.1207 21.05 56.7007 21.49C56.3007 21.93 55.8307 22.15 55.2907 22.15C54.7707 22.15 54.2907 21.94 53.8507 21.52L47.2807 15.43V20.02C47.2807 20.72 47.0607 21.25 46.6207 21.61C46.2007 21.97 45.6707 22.15 45.0307 22.15C44.3707 22.15 43.8207 21.97 43.3807 21.61C42.9607 21.25 42.7507 20.72 42.7507 20.02V2.83C42.7507 2.13 42.9607 1.6 43.3807 1.24C43.8207 0.879999 44.3707 0.699999 45.0307 0.699999C45.6707 0.699999 46.2007 0.879999 46.6207 1.24C47.0607 1.6 47.2807 2.13 47.2807 2.83V13.57L53.2807 7.66C53.7207 7.22 54.2107 7 54.7507 7C55.3107 7 55.8007 7.21 56.2207 7.63C56.6407 8.03 56.8507 8.51 56.8507 9.07C56.8507 9.59 56.6207 10.08 56.1607 10.54L52.1707 14.35L56.6407 18.49ZM62.1793 22.18C61.4793 22.18 60.9093 21.97 60.4693 21.55C60.0493 21.11 59.8393 20.54 59.8393 19.84V3.04C59.8393 2.34 60.0293 1.8 60.4093 1.42C60.7893 1.04 61.3293 0.849999 62.0293 0.849999H72.3493C73.1093 0.849999 73.6693 0.999999 74.0293 1.3C74.3893 1.6 74.5693 2.07 74.5693 2.71C74.5693 3.33 74.3893 3.79 74.0293 4.09C73.6693 4.39 73.1093 4.54 72.3493 4.54H64.4593V9.4H71.7493C72.5093 9.4 73.0693 9.55 73.4293 9.85C73.7893 10.15 73.9693 10.62 73.9693 11.26C73.9693 11.88 73.7893 12.34 73.4293 12.64C73.0693 12.94 72.5093 13.09 71.7493 13.09H64.4593V19.84C64.4593 20.56 64.2493 21.13 63.8293 21.55C63.4293 21.97 62.8793 22.18 62.1793 22.18ZM80.1284 22.18C79.4684 22.18 78.9184 22 78.4784 21.64C78.0584 21.28 77.8484 20.75 77.8484 20.05V9.1C77.8484 8.4 78.0684 7.87 78.5084 7.51C78.9484 7.15 79.4884 6.97 80.1284 6.97C80.7684 6.97 81.2984 7.15 81.7184 7.51C82.1584 7.87 82.3784 8.4 82.3784 9.1V20.05C82.3784 20.75 82.1584 21.28 81.7184 21.64C81.2984 22 80.7684 22.18 80.1284 22.18ZM80.1284 4.57C79.3284 4.57 78.6984 4.37 78.2384 3.97C77.7784 3.55 77.5484 2.99 77.5484 2.29C77.5484 1.59 77.7784 1.04 78.2384 0.64C78.6984 0.239999 79.3284 0.0399984 80.1284 0.0399984C80.9084 0.0399984 81.5284 0.249999 81.9884 0.669999C82.4684 1.07 82.7084 1.61 82.7084 2.29C82.7084 2.99 82.4784 3.55 82.0184 3.97C81.5584 4.37 80.9284 4.57 80.1284 4.57ZM94.6364 6.97C95.2364 6.93 95.7064 7.07 96.0464 7.39C96.4064 7.69 96.5864 8.15 96.5864 8.77C96.5864 9.43 96.4264 9.92 96.1064 10.24C95.7864 10.56 95.2164 10.76 94.3964 10.84L93.4964 10.93C92.3964 11.05 91.5964 11.41 91.0964 12.01C90.6164 12.61 90.3764 13.38 90.3764 14.32V20.05C90.3764 20.75 90.1564 21.28 89.7164 21.64C89.2964 22 88.7664 22.18 88.1264 22.18C87.4664 22.18 86.9164 22 86.4764 21.64C86.0564 21.28 85.8464 20.75 85.8464 20.05V9.04C85.8464 8.38 86.0664 7.87 86.5064 7.51C86.9464 7.15 87.4764 6.97 88.0964 6.97C88.6964 6.97 89.1964 7.15 89.5964 7.51C89.9964 7.85 90.1964 8.33 90.1964 8.95V9.76C90.5564 8.9 91.0964 8.24 91.8164 7.78C92.5564 7.32 93.3564 7.06 94.2164 7L94.6364 6.97ZM109.414 17.62C109.814 17.62 110.134 17.78 110.374 18.1C110.634 18.42 110.764 18.83 110.764 19.33C110.764 19.67 110.664 19.99 110.464 20.29C110.264 20.57 109.984 20.81 109.624 21.01C108.944 21.37 108.154 21.67 107.254 21.91C106.354 22.13 105.524 22.24 104.764 22.24C103.164 22.24 101.764 21.93 100.564 21.31C99.3845 20.69 98.4745 19.81 97.8345 18.67C97.1945 17.51 96.8745 16.15 96.8745 14.59C96.8745 13.09 97.1845 11.76 97.8045 10.6C98.4245 9.44 99.2845 8.54 100.384 7.9C101.484 7.24 102.734 6.91 104.134 6.91C105.474 6.91 106.644 7.21 107.644 7.81C108.664 8.39 109.454 9.23 110.014 10.33C110.574 11.41 110.854 12.68 110.854 14.14C110.854 14.58 110.744 14.92 110.524 15.16C110.324 15.38 110.034 15.49 109.654 15.49H101.254C101.394 16.67 101.754 17.53 102.334 18.07C102.914 18.59 103.744 18.85 104.824 18.85C105.404 18.85 105.924 18.78 106.384 18.64C106.844 18.5 107.354 18.31 107.914 18.07C108.194 17.95 108.464 17.85 108.724 17.77C108.984 17.67 109.214 17.62 109.414 17.62ZM104.254 10.03C103.394 10.03 102.704 10.31 102.184 10.87C101.664 11.41 101.354 12.2 101.254 13.24H107.044C106.984 12.18 106.714 11.38 106.234 10.84C105.774 10.3 105.114 10.03 104.254 10.03Z" fill="#EEEEEE" fill-opacity="0.5"/>
</svg>
