<svg width="81" height="56" viewBox="0 0 81 56" fill="none" xmlns="http://www.w3.org/2000/svg">
<path d="M0.8 0.699998H6.17V21.37H11.75V25H0.8V0.699998ZM13.8308 1.33H18.7508V4.72H13.8308V1.33ZM13.8608 7.66H18.7508V25H13.8608V7.66ZM27.4102 25.3C25.5302 25.3 24.0602 24.79 23.0002 23.77C21.9402 22.75 21.4102 21.33 21.4102 19.51V13.15C21.4102 11.31 21.9302 9.89 22.9702 8.89C24.0302 7.87 25.5102 7.36 27.4102 7.36C29.2902 7.36 30.7302 7.8 31.7302 8.68C32.7502 9.56 33.2602 10.86 33.2602 12.58V14.41H28.5502V12.43C28.5502 11.77 28.4502 11.32 28.2502 11.08C28.0702 10.82 27.7902 10.69 27.4102 10.69C27.0302 10.69 26.7502 10.85 26.5702 11.17C26.4102 11.47 26.3302 11.99 26.3302 12.73V19.93C26.3302 20.67 26.4202 21.19 26.6002 21.49C26.7802 21.79 27.0602 21.94 27.4402 21.94C27.8202 21.94 28.1002 21.81 28.2802 21.55C28.4602 21.29 28.5502 20.85 28.5502 20.23V17.92H33.2602V20.02C33.2602 21.74 32.7502 23.05 31.7302 23.95C30.7102 24.85 29.2702 25.3 27.4102 25.3ZM35.8034 0.699998H40.6634V14.17L44.9234 7.66H50.4134L45.7934 14.77L50.3534 25H45.0134L41.9534 16.75L40.6634 18.4V25H35.8034V0.699998ZM65.1097 25.36C63.3897 25.36 61.9997 24.84 60.9397 23.8C59.8797 22.74 59.3497 21.32 59.3497 19.54C59.3497 18.1 59.6397 16.81 60.2197 15.67C60.8197 14.53 61.6797 13.37 62.7997 12.19C62.0197 10.85 61.4197 9.67 60.9997 8.65C60.5797 7.63 60.3697 6.64 60.3697 5.68C60.3697 4.14 60.8397 2.87 61.7797 1.87C62.7197 0.849999 64.0197 0.339999 65.6797 0.339999C67.2197 0.339999 68.4797 0.819999 69.4597 1.78C70.4397 2.74 70.9297 3.98 70.9297 5.5C70.9297 6.42 70.7697 7.26 70.4497 8.02C70.1297 8.78 69.7397 9.45 69.2797 10.03C68.8397 10.59 68.2597 11.25 67.5397 12.01L66.8197 12.79L69.6697 18.13C69.9097 17.71 70.1097 17 70.2697 16C70.4297 14.98 70.5297 14 70.5697 13.06H73.8697C73.8697 14.72 73.7097 16.14 73.3897 17.32C73.0897 18.5 72.6397 19.66 72.0397 20.8C72.2397 21.06 72.5197 21.29 72.8797 21.49C73.2597 21.67 73.6397 21.77 74.0197 21.79V25.36C73.9397 25.38 73.8297 25.4 73.6897 25.42C73.5497 25.44 73.3797 25.45 73.1797 25.45C72.4797 25.45 71.7997 25.25 71.1397 24.85C70.4997 24.43 69.9397 23.92 69.4597 23.32C68.3797 24.68 66.9297 25.36 65.1097 25.36ZM65.4397 10.21C65.8797 9.61 66.2697 8.84 66.6097 7.9C66.9697 6.94 67.1497 6.11 67.1497 5.41C67.1497 4.91 67.0097 4.52 66.7297 4.24C66.4697 3.94 66.1397 3.79 65.7397 3.79C65.3197 3.79 64.9797 3.97 64.7197 4.33C64.4597 4.67 64.3297 5.12 64.3297 5.68C64.3297 6.92 64.6997 8.43 65.4397 10.21ZM65.2897 22.09C66.1497 22.09 66.8697 21.67 67.4497 20.83L64.4797 15.34C63.6397 16.7 63.2197 18.03 63.2197 19.33C63.2197 20.15 63.3997 20.82 63.7597 21.34C64.1197 21.84 64.6297 22.09 65.2897 22.09ZM0.8 30.7H7.49C10.15 30.7 12.16 31.17 13.52 32.11C14.88 33.05 15.56 34.72 15.56 37.12C15.56 38.74 15.35 40.03 14.93 40.99C14.51 41.95 13.73 42.7 12.59 43.24L15.92 55H10.37L7.7 44.11H6.17V55H0.8V30.7ZM7.67 41.02C8.75 41.02 9.5 40.74 9.92 40.18C10.36 39.6 10.58 38.74 10.58 37.6C10.58 36.5 10.38 35.68 9.98 35.14C9.58 34.58 8.89 34.3 7.91 34.3H6.17V41.02H7.67ZM18.5183 31.33H23.4383V34.72H18.5183V31.33ZM18.5483 37.66H23.4383V55H18.5483V37.66ZM32.1577 55.3C30.2577 55.3 28.7677 54.82 27.6877 53.86C26.6277 52.9 26.0977 51.49 26.0977 49.63V43.03C26.0977 41.17 26.6277 39.76 27.6877 38.8C28.7677 37.84 30.2577 37.36 32.1577 37.36C34.0577 37.36 35.5477 37.85 36.6277 38.83C37.7077 39.79 38.2477 41.19 38.2477 43.03V49.63C38.2477 51.47 37.7077 52.88 36.6277 53.86C35.5477 54.82 34.0577 55.3 32.1577 55.3ZM32.1877 52.06C32.6477 52.06 32.9677 51.89 33.1477 51.55C33.3277 51.19 33.4177 50.66 33.4177 49.96V42.7C33.4177 42 33.3277 41.48 33.1477 41.14C32.9677 40.78 32.6477 40.6 32.1877 40.6C31.7277 40.6 31.3977 40.78 31.1977 41.14C31.0177 41.5 30.9277 42.02 30.9277 42.7V49.96C30.9277 50.66 31.0177 51.19 31.1977 51.55C31.3977 51.89 31.7277 52.06 32.1877 52.06ZM40.9597 37.66H45.8497V39.4C47.2097 38.04 48.5997 37.36 50.0197 37.36C51.0597 37.36 51.8497 37.74 52.3897 38.5C52.9497 39.24 53.2297 40.21 53.2297 41.41V55H48.3697V42.1C48.3697 41.66 48.2897 41.34 48.1297 41.14C47.9897 40.92 47.7397 40.81 47.3797 40.81C46.9797 40.81 46.4697 41.02 45.8497 41.44V55H40.9597V37.66ZM61.5048 55.3C59.9648 55.3 58.6848 54.96 57.6648 54.28C56.6648 53.58 55.8548 52.47 55.2348 50.95L58.5648 49.48C58.8848 50.28 59.2548 50.9 59.6748 51.34C60.1148 51.78 60.5948 52 61.1148 52C61.8748 52 62.2548 51.7 62.2548 51.1C62.2548 50.66 62.1048 50.27 61.8048 49.93C61.5048 49.57 60.8548 48.98 59.8548 48.16L58.5948 47.11C57.5548 46.23 56.7948 45.43 56.3148 44.71C55.8548 43.99 55.6248 43.13 55.6248 42.13C55.6248 41.21 55.8648 40.39 56.3448 39.67C56.8448 38.95 57.5048 38.39 58.3248 37.99C59.1448 37.57 60.0248 37.36 60.9648 37.36C62.3848 37.36 63.5648 37.75 64.5048 38.53C65.4648 39.29 66.1448 40.39 66.5448 41.83L63.3948 43.27C63.1948 42.63 62.8848 42.06 62.4648 41.56C62.0448 41.04 61.5848 40.78 61.0848 40.78C60.7648 40.78 60.5048 40.87 60.3048 41.05C60.1248 41.23 60.0348 41.47 60.0348 41.77C60.0348 42.13 60.2248 42.52 60.6048 42.94C61.0048 43.36 61.6248 43.91 62.4648 44.59L63.6948 45.67C64.6948 46.51 65.4648 47.3 66.0048 48.04C66.5448 48.76 66.8148 49.61 66.8148 50.59C66.8148 51.57 66.5648 52.42 66.0648 53.14C65.5848 53.84 64.9348 54.38 64.1148 54.76C63.3148 55.12 62.4448 55.3 61.5048 55.3ZM74.5796 55.3C72.6796 55.3 71.1896 54.82 70.1096 53.86C69.0496 52.9 68.5196 51.49 68.5196 49.63V43.03C68.5196 41.17 69.0496 39.76 70.1096 38.8C71.1896 37.84 72.6796 37.36 74.5796 37.36C76.4796 37.36 77.9696 37.85 79.0496 38.83C80.1296 39.79 80.6696 41.19 80.6696 43.03V49.63C80.6696 51.47 80.1296 52.88 79.0496 53.86C77.9696 54.82 76.4796 55.3 74.5796 55.3ZM74.6096 52.06C75.0696 52.06 75.3896 51.89 75.5696 51.55C75.7496 51.19 75.8396 50.66 75.8396 49.96V42.7C75.8396 42 75.7496 41.48 75.5696 41.14C75.3896 40.78 75.0696 40.6 74.6096 40.6C74.1496 40.6 73.8196 40.78 73.6196 41.14C73.4396 41.5 73.3496 42.02 73.3496 42.7V49.96C73.3496 50.66 73.4396 51.19 73.6196 51.55C73.8196 51.89 74.1496 52.06 74.6096 52.06Z" fill="#EEEEEE" fill-opacity="0.5"/>
</svg>
