<svg width="129" height="24" viewBox="0 0 129 24" fill="none" xmlns="http://www.w3.org/2000/svg">
<path d="M17.01 1.94V6.05H11.43V23H6.3V6.05H0.72V1.94H17.01ZM24.7146 6.05V10.31H31.5846V14.27H24.7146V18.89H32.4846V23H19.5846V1.94H32.4846V6.05H24.7146ZM43.7051 1.94C45.9251 1.94 47.8651 2.38 49.5251 3.26C51.1851 4.14 52.4651 5.38 53.3651 6.98C54.2851 8.56 54.7451 10.39 54.7451 12.47C54.7451 14.53 54.2851 16.36 53.3651 17.96C52.4651 19.56 51.1751 20.8 49.4951 21.68C47.8351 22.56 45.9051 23 43.7051 23H35.8151V1.94H43.7051ZM43.3751 18.56C45.3151 18.56 46.8251 18.03 47.9051 16.97C48.9851 15.91 49.5251 14.41 49.5251 12.47C49.5251 10.53 48.9851 9.02 47.9051 7.94C46.8251 6.86 45.3151 6.32 43.3751 6.32H40.9451V18.56H43.3751ZM72.762 1.94V6.05H67.182V23H62.052V6.05H56.472V1.94H72.762ZM91.1166 14.36C91.1166 14.84 91.0866 15.34 91.0266 15.86H79.4166C79.4966 16.9 79.8266 17.7 80.4066 18.26C81.0066 18.8 81.7366 19.07 82.5966 19.07C83.8766 19.07 84.7666 18.53 85.2666 17.45H90.7266C90.4466 18.55 89.9366 19.54 89.1966 20.42C88.4766 21.3 87.5666 21.99 86.4666 22.49C85.3666 22.99 84.1366 23.24 82.7766 23.24C81.1366 23.24 79.6766 22.89 78.3966 22.19C77.1166 21.49 76.1166 20.49 75.3966 19.19C74.6766 17.89 74.3166 16.37 74.3166 14.63C74.3166 12.89 74.6666 11.37 75.3666 10.07C76.0866 8.77 77.0866 7.77 78.3666 7.07C79.6466 6.37 81.1166 6.02 82.7766 6.02C84.3966 6.02 85.8366 6.36 87.0966 7.04C88.3566 7.72 89.3366 8.69 90.0366 9.95C90.7566 11.21 91.1166 12.68 91.1166 14.36ZM85.8666 13.01C85.8666 12.13 85.5666 11.43 84.9666 10.91C84.3666 10.39 83.6166 10.13 82.7166 10.13C81.8566 10.13 81.1266 10.38 80.5266 10.88C79.9466 11.38 79.5866 12.09 79.4466 13.01H85.8666ZM92.8029 14.63C92.8029 12.89 93.1529 11.37 93.8529 10.07C94.5729 8.77 95.5629 7.77 96.8229 7.07C98.1029 6.37 99.5629 6.02 101.203 6.02C103.303 6.02 105.053 6.57 106.453 7.67C107.873 8.77 108.803 10.32 109.243 12.32H103.783C103.323 11.04 102.433 10.4 101.113 10.4C100.173 10.4 99.4229 10.77 98.8629 11.51C98.3029 12.23 98.0229 13.27 98.0229 14.63C98.0229 15.99 98.3029 17.04 98.8629 17.78C99.4229 18.5 100.173 18.86 101.113 18.86C102.433 18.86 103.323 18.22 103.783 16.94H109.243C108.803 18.9 107.873 20.44 106.453 21.56C105.033 22.68 103.283 23.24 101.203 23.24C99.5629 23.24 98.1029 22.89 96.8229 22.19C95.5629 21.49 94.5729 20.49 93.8529 19.19C93.1529 17.89 92.8029 16.37 92.8029 14.63ZM122.277 6.08C124.197 6.08 125.737 6.72 126.897 8C128.057 9.26 128.637 11 128.637 13.22V23H123.537V13.91C123.537 12.79 123.247 11.92 122.667 11.3C122.087 10.68 121.307 10.37 120.327 10.37C119.347 10.37 118.567 10.68 117.987 11.3C117.407 11.92 117.117 12.79 117.117 13.91V23H111.987V0.8H117.117V8.51C117.637 7.77 118.347 7.18 119.247 6.74C120.147 6.3 121.157 6.08 122.277 6.08Z" fill="#EEEEEE" fill-opacity="0.5"/>
</svg>
