<svg width="74" height="23" viewBox="0 0 74 23" fill="none" xmlns="http://www.w3.org/2000/svg">
<path d="M12.3972 11.26L18.9672 22H12.6972L7.26723 12.7L5.61723 22H0.487227L4.20723 0.939999H9.33723L7.71723 10.18L16.3872 0.939999H22.3872L12.3972 11.26ZM41.8052 13.66C40.9252 15.04 40.0952 16.17 39.3152 17.05L43.5152 22H37.5452L35.9252 20.11C33.7452 21.59 31.2952 22.33 28.5752 22.33C26.3752 22.33 24.6352 21.85 23.3552 20.89C22.0952 19.91 21.4652 18.59 21.4652 16.93C21.4652 15.35 21.9752 13.94 22.9952 12.7C24.0352 11.46 25.4152 10.47 27.1352 9.73C26.5152 8.77 26.2052 7.83 26.2052 6.91C26.2052 5.69 26.5252 4.61 27.1652 3.67C27.8052 2.71 28.6952 1.97 29.8352 1.45C30.9752 0.929999 32.2652 0.669999 33.7052 0.669999C35.5052 0.669999 36.8852 1.08 37.8452 1.9C38.8252 2.72 39.3152 3.76 39.3152 5.02C39.3152 5.28 39.2852 5.58 39.2252 5.92H34.4252C34.4452 5.84 34.4552 5.72 34.4552 5.56C34.4552 5.18 34.3252 4.89 34.0652 4.69C33.8052 4.47 33.4752 4.36 33.0752 4.36C32.5352 4.36 32.0752 4.54 31.6952 4.9C31.3152 5.24 31.1252 5.68 31.1252 6.22C31.1252 6.92 31.5252 7.77 32.3252 8.77L36.5552 13.78L37.0952 12.94L38.5352 11.05H43.6952L41.8052 13.66ZM29.5952 18.19C30.9352 18.19 32.1752 17.82 33.3152 17.08L29.4452 12.55C28.5852 12.95 27.9152 13.45 27.4352 14.05C26.9552 14.63 26.7152 15.27 26.7152 15.97C26.7152 16.63 26.9652 17.17 27.4652 17.59C27.9852 17.99 28.6952 18.19 29.5952 18.19ZM73.2037 0.939999L69.4837 22H64.3537L66.6037 9.37L59.6437 22H55.5037L52.9837 9.31L50.7637 22H45.6337L49.3537 0.939999H55.4137L58.7737 15.52L67.1737 0.939999H73.2037Z" fill="#EEEEEE" fill-opacity="0.5"/>
</svg>
